<svg width="28" height="28" viewBox="0 0 28 28" fill="none" xmlns="http://www.w3.org/2000/svg">
<path fill-rule="evenodd" clip-rule="evenodd" d="M13.9999 27.5295C21.472 27.5295 27.5293 21.4722 27.5293 14.0001C27.5293 6.52803 21.472 0.470703 13.9999 0.470703C6.52781 0.470703 0.47049 6.52803 0.47049 14.0001C0.47049 21.4722 6.52781 27.5295 13.9999 27.5295ZM20.9982 10.8513C21.4385 10.411 21.4385 9.6971 20.9982 9.2568C20.5579 8.81651 19.844 8.81651 19.4037 9.2568L11.7451 16.9155L8.59622 13.7666C8.15592 13.3263 7.44206 13.3263 7.00176 13.7666C6.56146 14.2069 6.56146 14.9208 7.00176 15.3611L10.9478 19.3071C11.1593 19.5186 11.446 19.6374 11.7451 19.6374C12.0441 19.6374 12.3309 19.5186 12.5423 19.3071L20.9982 10.8513Z" fill="#40C057"/>
</svg>
