<svg width="46" height="46" viewBox="0 0 46 46" fill="none" xmlns="http://www.w3.org/2000/svg">
<path fill-rule="evenodd" clip-rule="evenodd" d="M22.9999 36.5295C30.472 36.5295 36.5293 30.4722 36.5293 23.0001C36.5293 15.528 30.472 9.4707 22.9999 9.4707C15.5278 9.4707 9.47049 15.528 9.47049 23.0001C9.47049 30.4722 15.5278 36.5295 22.9999 36.5295ZM29.9982 19.8513C30.4385 19.411 30.4385 18.6971 29.9982 18.2568C29.5579 17.8165 28.844 17.8165 28.4037 18.2568L20.7451 25.9155L17.5962 22.7666C17.1559 22.3263 16.4421 22.3263 16.0018 22.7666C15.5615 23.2069 15.5615 23.9208 16.0018 24.3611L19.9478 28.3071C20.1593 28.5186 20.446 28.6374 20.7451 28.6374C21.0441 28.6374 21.3309 28.5186 21.5423 28.3071L29.9982 19.8513Z" fill="#40C057"/>
</svg>
