<svg width="28" height="28" viewBox="0 0 28 28" fill="none" xmlns="http://www.w3.org/2000/svg">
<path fill-rule="evenodd" clip-rule="evenodd" d="M27.7646 14.2355C27.7646 21.7076 21.7073 27.7649 14.2352 27.7649C6.7631 27.7649 0.70578 21.7076 0.70578 14.2355C0.70578 6.76338 6.7631 0.706055 14.2352 0.706055C21.7073 0.706055 27.7646 6.76338 27.7646 14.2355ZM9.58877 8.05836C9.16608 7.63568 8.48077 7.63568 8.05809 8.05836C7.6354 8.48105 7.6354 9.16636 8.05809 9.58904L12.7045 14.2355L8.05809 18.8819C7.6354 19.3046 7.6354 19.9899 8.05809 20.4126C8.48077 20.8353 9.16608 20.8353 9.58877 20.4126L14.2352 15.7661L18.8816 20.4126C19.3043 20.8353 19.9896 20.8353 20.4123 20.4126C20.835 19.9899 20.835 19.3046 20.4123 18.8819L15.7659 14.2355L20.4123 9.58904C20.835 9.16636 20.835 8.48105 20.4123 8.05836C19.9896 7.63568 19.3043 7.63568 18.8816 8.05836L14.2352 12.7048L9.58877 8.05836Z" fill="#FF6C6C"/>
</svg>
